<svg width="43" height="79" viewBox="0 0 43 79" fill="none" xmlns="http://www.w3.org/2000/svg">
<path d="M39.528 78.8904C40.1074 78.8903 40.6738 78.7183 41.1556 78.3963C41.6373 78.0742 42.0127 77.6165 42.2343 77.0811C42.4559 76.5457 42.5138 75.9566 42.4006 75.3883C42.2874 74.82 42.0082 74.2981 41.5983 73.8885L7.55727 39.8474L41.5983 5.80641C42.1319 5.25386 42.4272 4.51382 42.4206 3.74566C42.4139 2.97751 42.1058 2.2427 41.5626 1.69952C41.0194 1.15633 40.2846 0.848216 39.5164 0.841541C38.7483 0.834866 38.0082 1.13016 37.4557 1.66383L1.34243 37.7771C0.793201 38.3265 0.484657 39.0716 0.484657 39.8484C0.484657 40.6252 0.793201 41.3703 1.34243 41.9197L37.4557 78.033C37.7279 78.305 38.051 78.5207 38.4065 78.6678C38.7621 78.8149 39.1432 78.8906 39.528 78.8904Z" fill="black"/>
</svg>
